# xmcd
#
# Track frame offsets: 
#        150
#        25142
#        45563
#        67017
#        84902
#        100048
#        119990
#        142762
#        167254
#        188891
#        217288
#        256317
#
# Disc length: 3741 seconds
#
# Revision: 1
# Processed by: cddbd v1.5.2PL0 Copyright (c) Steve Scherf et al.
# Submitted via: ExactAudioCopy v1.3
#
DISCID=a40e9b0c
DTITLE=Чайф - Давай вернемся
DYEAR=2003
DGENRE=Blues
TTITLE0=С войны
TTITLE1=Матрос
TTITLE2=Оставь нам нашу любовь
TTITLE3=Открытие
TTITLE4=Там, где нет ничего (Молодёжная)
TTITLE5=Никто не услышит (Ой-йо)
TTITLE6=По-другому не прожить (Псы)
TTITLE7=Давай вернёмся (Про бухло)
TTITLE8=Ты моя крепость
TTITLE9=Поплачь о нём
TTITLE10=У зимнего моря
TTITLE11=Никто не услышит (Ой-йо)
EXTD=
EXTT0=
EXTT1=
EXTT2=
EXTT3=
EXTT4=
EXTT5=
EXTT6=
EXTT7=
EXTT8=
EXTT9=
EXTT10=
EXTT11=
PLAYORDER=
